<?xml version="1.0" encoding="UTF-8"?>
<svg id="Capa_1" data-name="Capa 1" xmlns="http://www.w3.org/2000/svg" viewBox="0 138 841.89 280">
  <defs>
    <style>
      .cls-2 {
        fill: #f58220;
      }

      .cls-3, .cls-4 {
        fill: #ffffff;
      }

      .cls-3, .cls-2 {
        fill-rule: evenodd;
      }
    </style>
  </defs>
  <path class="cls-4" d="m375.99,266.57h-33.27v-35.8c0-2.94-1.7-4.41-5.11-4.41s-5.35,1.47-5.35,4.41v125.56c0,2.94,1.78,4.41,5.35,4.41s5.11-1.47,5.11-4.45v-44.84h33.27v46.18c0,8.6-3.88,15.52-11.65,20.75-7.76,5.19-16.52,7.78-26.3,7.78-28.24,0-42.38-10.9-42.38-32.64v-116.78c0-23.52,14.14-35.28,42.38-35.28,25.31,0,37.95,10.72,37.95,32.17v32.95Zm170.68,31.87h-33.03v-31.91c0-4.45-1.9-6.7-5.7-6.7s-5.7,2.16-5.7,6.44v118.34h-33.03v-147.09h33.03v4.93c4.4-3.98,11.21-5.97,20.44-5.97,6.58,0,12.2,1.9,16.91,5.75,4.71,3.85,7.09,8.91,7.09,15.18v41.03Zm-118.83,1.86v-33.77c0-4.8-1.86-7.22-5.55-7.22s-5.62,2.42-5.62,7.22v33.77h11.17Zm33.03,22.05h-44.2v34.07c0,4.97,1.86,7.44,5.62,7.44s5.55-2.46,5.55-7.44v-29.4h33.03v29.88c0,19.85-12.91,29.79-38.78,29.79s-38.46-10.33-38.46-31.04v-88.12c0-20.71,12.83-31.04,38.46-31.04s38.78,9.94,38.78,29.79v56.08Zm-169.21-63.3h-19.01v125.56h-33.03v-125.56h-11.17v-21.53h11.17c0-12.88,1.51-21.88,4.48-26.94,2.97-5.06,11.88-7.57,26.66-7.57h20.91v19.72h-6.38c-5.62,0-9.15,1.17-10.54,3.46-1.39,2.33-2.1,6.1-2.1,11.33h19.01v21.53Zm-102.87,98.1v-37.92c-7.61,2.03-11.41,5.75-11.41,11.16v26.76c0,4.45,1.98,6.7,5.94,6.7,3.64,0,5.47-2.25,5.47-6.7Zm33.03,27.46h-29.19v-5.71c-2.5,5.19-9.59,7.78-21.23,7.78-18.02,0-27.05-7.7-27.05-23.09v-29.53c0-6.57,2.18-12.32,6.58-17.25,4.36-4.89,13.15-11.03,26.38-18.38,7.64-4.24,11.49-7.61,11.49-10.12v-21.79c0-4.8-1.9-7.22-5.7-7.22-4.36,0-6.5,5.88-6.5,17.6,0,2.12.08,5.23.32,9.38.32,4.15.48,7.26.48,9.38h-31.85v-29.4c0-19.85,13.15-29.79,39.41-29.79,24.6,0,36.88,10.33,36.88,31.04v117.09Zm-121.88-32.99v-115.75c0-6.36-3.49-9.51-10.46-9.51v134.9c6.97,0,10.46-3.2,10.46-9.64Zm-47.06,32.99v-181.6h45.55c9.9,0,18.74,2.94,26.5,8.82,7.72,5.84,11.61,14.87,11.61,27.02v109.91c0,11.33-3.6,20.11-10.85,26.42-7.25,6.27-16.24,9.43-27.01,9.43h-45.79Z"/>
  <path class="cls-3" d="m508.36,385.16l45.39-14.05c52.49-79.53,127.37-141.65,212.27-195.98-105.65,56.77-191.6,126.26-257.66,210.03"/>
  <path class="cls-3" d="m576.87,353.77l48.37-14.07c31.44-65.28,85.93-127.65,165.2-170.74-85.5,40.35-160.12,113.16-213.57,184.81"/>
  <path class="cls-2" d="m651.65,203.32c15.61,0,29.84,5.94,40.54,15.68-33.89,22.26-65.33,46.16-94.29,71.75-4.14-8.17-6.48-17.41-6.48-27.2,0-33.27,26.97-60.24,60.23-60.24"/>

</svg>
