<?xml version="1.0" encoding="UTF-8"?>
<svg id="Capa_1" data-name="Capa 1" xmlns="http://www.w3.org/2000/svg" viewBox="0 0 841.89 595.28">
  <defs>
    <style>
      .cls-1, .cls-2 {
        fill: #f58220;
      }

      .cls-3, .cls-4 {
        fill: #ffffff;
      }

      .cls-3, .cls-2 {
        fill-rule: evenodd;
      }
    </style>
  </defs>
  <path class="cls-4" d="m375.99,266.57h-33.27v-35.8c0-2.94-1.7-4.41-5.11-4.41s-5.35,1.47-5.35,4.41v125.56c0,2.94,1.78,4.41,5.35,4.41s5.11-1.47,5.11-4.45v-44.84h33.27v46.18c0,8.6-3.88,15.52-11.65,20.75-7.76,5.19-16.52,7.78-26.3,7.78-28.24,0-42.38-10.9-42.38-32.64v-116.78c0-23.52,14.14-35.28,42.38-35.28,25.31,0,37.95,10.72,37.95,32.17v32.95Zm170.68,31.87h-33.03v-31.91c0-4.45-1.9-6.7-5.7-6.7s-5.7,2.16-5.7,6.44v118.34h-33.03v-147.09h33.03v4.93c4.4-3.98,11.21-5.97,20.44-5.97,6.58,0,12.2,1.9,16.91,5.75,4.71,3.85,7.09,8.91,7.09,15.18v41.03Zm-118.83,1.86v-33.77c0-4.8-1.86-7.22-5.55-7.22s-5.62,2.42-5.62,7.22v33.77h11.17Zm33.03,22.05h-44.2v34.07c0,4.97,1.86,7.44,5.62,7.44s5.55-2.46,5.55-7.44v-29.4h33.03v29.88c0,19.85-12.91,29.79-38.78,29.79s-38.46-10.33-38.46-31.04v-88.12c0-20.71,12.83-31.04,38.46-31.04s38.78,9.94,38.78,29.79v56.08Zm-169.21-63.3h-19.01v125.56h-33.03v-125.56h-11.17v-21.53h11.17c0-12.88,1.51-21.88,4.48-26.94,2.97-5.06,11.88-7.57,26.66-7.57h20.91v19.72h-6.38c-5.62,0-9.15,1.17-10.54,3.46-1.39,2.33-2.1,6.1-2.1,11.33h19.01v21.53Zm-102.87,98.1v-37.92c-7.61,2.03-11.41,5.75-11.41,11.16v26.76c0,4.45,1.98,6.7,5.94,6.7,3.64,0,5.47-2.25,5.47-6.7Zm33.03,27.46h-29.19v-5.71c-2.5,5.19-9.59,7.78-21.23,7.78-18.02,0-27.05-7.7-27.05-23.09v-29.53c0-6.57,2.18-12.32,6.58-17.25,4.36-4.89,13.15-11.03,26.38-18.38,7.64-4.24,11.49-7.61,11.49-10.12v-21.79c0-4.8-1.9-7.22-5.7-7.22-4.36,0-6.5,5.88-6.5,17.6,0,2.12.08,5.23.32,9.38.32,4.15.48,7.26.48,9.38h-31.85v-29.4c0-19.85,13.15-29.79,39.41-29.79,24.6,0,36.88,10.33,36.88,31.04v117.09Zm-121.88-32.99v-115.75c0-6.36-3.49-9.51-10.46-9.51v134.9c6.97,0,10.46-3.2,10.46-9.64Zm-47.06,32.99v-181.6h45.55c9.9,0,18.74,2.94,26.5,8.82,7.72,5.84,11.61,14.87,11.61,27.02v109.91c0,11.33-3.6,20.11-10.85,26.42-7.25,6.27-16.24,9.43-27.01,9.43h-45.79Z"/>
  <path class="cls-3" d="m508.36,385.16l45.39-14.05c52.49-79.53,127.37-141.65,212.27-195.98-105.65,56.77-191.6,126.26-257.66,210.03"/>
  <path class="cls-3" d="m576.87,353.77l48.37-14.07c31.44-65.28,85.93-127.65,165.2-170.74-85.5,40.35-160.12,113.16-213.57,184.81"/>
  <path class="cls-2" d="m651.65,203.32c15.61,0,29.84,5.94,40.54,15.68-33.89,22.26-65.33,46.16-94.29,71.75-4.14-8.17-6.48-17.41-6.48-27.2,0-33.27,26.97-60.24,60.23-60.24"/>
  <path class="cls-1" d="m607.85,419.83l3.45-.39c.21,1.33.62,2.29,1.25,2.92.63.62,1.48.93,2.55.93,1.13,0,1.99-.28,2.56-.83.57-.55.86-1.2.86-1.94,0-.48-.12-.88-.36-1.22-.24-.33-.66-.62-1.27-.87-.41-.17-1.35-.46-2.81-.88-1.89-.54-3.21-1.21-3.97-2-1.07-1.11-1.6-2.46-1.6-4.06,0-1.03.25-1.99.75-2.89.5-.89,1.23-1.57,2.18-2.04.95-.47,2.09-.7,3.43-.7,2.19,0,3.84.56,4.94,1.68,1.11,1.12,1.69,2.61,1.74,4.48l-3.54.14c-.15-1.04-.47-1.78-.96-2.24-.49-.45-1.23-.68-2.22-.68s-1.82.24-2.39.73c-.37.31-.56.73-.56,1.26,0,.48.18.89.53,1.22.44.44,1.52.88,3.24,1.35,1.71.46,2.98.95,3.8,1.45.82.5,1.47,1.18,1.93,2.05.46.87.7,1.93.7,3.2,0,1.15-.28,2.23-.83,3.24-.56,1.01-1.34,1.76-2.36,2.24-1.02.49-2.29.74-3.81.74-2.21,0-3.91-.59-5.09-1.76-1.19-1.17-1.89-2.88-2.12-5.12m-22.37-3.55c0,2.28.46,4.01,1.38,5.19.92,1.18,2.08,1.77,3.49,1.77s2.57-.59,3.48-1.75c.9-1.17,1.36-2.92,1.36-5.26s-.44-4.03-1.32-5.17c-.88-1.14-2.05-1.7-3.51-1.7s-2.63.58-3.53,1.72c-.89,1.15-1.34,2.89-1.34,5.2Zm-3.64.14c0-2.05.27-3.78.8-5.17.39-1.03.94-1.95,1.63-2.76.69-.81,1.44-1.42,2.26-1.82,1.09-.53,2.35-.8,3.78-.8,2.58,0,4.64.92,6.19,2.76,1.55,1.85,2.32,4.41,2.32,7.69s-.77,5.8-2.3,7.64c-1.54,1.84-3.59,2.76-6.16,2.76s-4.67-.91-6.21-2.74c-1.54-1.83-2.3-4.35-2.3-7.56Zm-13.38,9.94v-20.12h3.54v20.12h-3.54Zm-13.54-7.42l3.42,1.21c-.53,2.22-1.4,3.86-2.62,4.94-1.22,1.07-2.77,1.61-4.65,1.61-2.33,0-4.24-.91-5.73-2.74-1.49-1.83-2.24-4.32-2.24-7.49,0-3.35.75-5.95,2.26-7.81,1.5-1.85,3.48-2.78,5.93-2.78,2.14,0,3.88.73,5.22,2.19.8.86,1.39,2.1,1.79,3.71l-3.49.96c-.21-1.04-.64-1.86-1.3-2.47-.66-.6-1.46-.9-2.39-.9-1.3,0-2.35.53-3.16,1.61-.81,1.07-1.21,2.8-1.21,5.2,0,2.54.4,4.35,1.19,5.43.8,1.08,1.83,1.62,3.11,1.62.94,0,1.75-.34,2.43-1.03.68-.69,1.16-1.77,1.46-3.24Zm-25.31,7.42v-20.12h3.54v20.12h-3.54Zm-18.9,0l-6.26-20.12h3.83l4.44,14.89,4.26-14.89h3.76l-6.22,20.12h-3.82Zm-25.34-11.61h2.61c1.69,0,2.75-.08,3.17-.25.42-.16.75-.45.99-.85.24-.4.36-.91.36-1.51,0-.68-.16-1.22-.47-1.64-.31-.42-.76-.68-1.33-.79-.29-.05-1.15-.07-2.58-.07h-2.76v5.11Zm-3.54,11.61v-20.12h7.44c1.87,0,3.23.18,4.08.54.85.36,1.53,1,2.04,1.93.51.93.77,1.98.77,3.17,0,1.51-.38,2.76-1.15,3.74-.77.98-1.92,1.6-3.45,1.86.76.51,1.39,1.07,1.88,1.69.5.61,1.16,1.7,2,3.27l2.13,3.93h-4.22l-2.53-4.39c-.91-1.56-1.53-2.54-1.87-2.95-.33-.4-.69-.68-1.06-.83-.38-.15-.97-.22-1.79-.22h-.72v8.4h-3.54Zm-23.5,0v-20.12h12.95v3.4h-9.41v4.47h8.75v3.4h-8.75v5.45h9.75v3.4h-13.29Zm-24.43-6.52l3.45-.39c.21,1.33.62,2.29,1.25,2.92.63.62,1.48.93,2.55.93,1.13,0,1.99-.28,2.56-.83.57-.55.86-1.2.86-1.94,0-.48-.12-.88-.36-1.22-.24-.33-.66-.62-1.27-.87-.41-.17-1.35-.46-2.81-.88-1.89-.54-3.21-1.21-3.97-2-1.07-1.11-1.6-2.46-1.6-4.06,0-1.03.25-1.99.75-2.89.5-.89,1.23-1.57,2.18-2.04.95-.47,2.09-.7,3.43-.7,2.19,0,3.84.56,4.94,1.68,1.11,1.12,1.69,2.61,1.74,4.48l-3.54.14c-.15-1.04-.47-1.78-.96-2.24-.49-.45-1.23-.68-2.22-.68s-1.82.24-2.39.73c-.37.31-.56.73-.56,1.26,0,.48.18.89.53,1.22.44.44,1.52.88,3.24,1.35,1.71.46,2.98.95,3.8,1.45.82.5,1.47,1.18,1.93,2.05.46.87.7,1.93.7,3.2,0,1.15-.28,2.23-.83,3.24-.56,1.01-1.34,1.76-2.36,2.24-1.02.49-2.29.74-3.81.74-2.21,0-3.91-.59-5.09-1.76-1.18-1.17-1.89-2.88-2.12-5.12Zm-31.12,6.52v-8.47l-6.41-11.65h4.14l4.14,7.97,4.03-7.97h4.06l-6.41,11.68v8.44h-3.54Zm-42.16-6.52l3.45-.39c.21,1.33.62,2.29,1.25,2.92.63.62,1.48.93,2.55.93,1.13,0,1.99-.28,2.56-.83.57-.55.86-1.2.86-1.94,0-.48-.12-.88-.36-1.22-.24-.33-.66-.62-1.27-.87-.41-.17-1.35-.46-2.81-.88-1.89-.54-3.21-1.21-3.97-2-1.07-1.11-1.6-2.46-1.6-4.06,0-1.03.25-1.99.75-2.89.5-.89,1.23-1.57,2.18-2.04.95-.47,2.09-.7,3.43-.7,2.19,0,3.84.56,4.94,1.68,1.11,1.12,1.69,2.61,1.74,4.48l-3.54.14c-.15-1.04-.47-1.78-.96-2.24-.49-.45-1.23-.68-2.22-.68s-1.82.24-2.39.73c-.37.31-.56.73-.56,1.26,0,.48.18.89.53,1.22.44.44,1.52.88,3.24,1.35,1.71.46,2.98.95,3.8,1.45.82.5,1.47,1.18,1.93,2.05.46.87.7,1.93.7,3.2,0,1.15-.28,2.23-.83,3.24-.56,1.01-1.34,1.76-2.36,2.24-1.02.49-2.29.74-3.81.74-2.21,0-3.91-.59-5.09-1.76-1.19-1.17-1.89-2.88-2.12-5.12Zm-22.57,6.52v-20.12h12.95v3.4h-9.41v4.47h8.75v3.4h-8.75v5.45h9.75v3.4h-13.29Zm-24.85,0v-20.12h3.43l7.2,13.48v-13.48h3.27v20.12h-3.54l-7.09-13.23v13.23h-3.27Zm-23.3-10.07c0,2.28.46,4.01,1.38,5.19.92,1.18,2.08,1.77,3.49,1.77s2.57-.59,3.48-1.75c.9-1.17,1.36-2.92,1.36-5.26s-.44-4.03-1.32-5.17c-.88-1.14-2.05-1.7-3.51-1.7s-2.63.58-3.53,1.72c-.89,1.15-1.34,2.89-1.34,5.2Zm-3.64.14c0-2.05.27-3.78.8-5.17.4-1.03.94-1.95,1.63-2.76.69-.81,1.44-1.42,2.26-1.82,1.09-.53,2.35-.8,3.77-.8,2.58,0,4.64.92,6.19,2.76,1.55,1.85,2.32,4.41,2.32,7.69s-.77,5.8-2.3,7.64c-1.54,1.84-3.59,2.76-6.16,2.76s-4.68-.91-6.21-2.74c-1.54-1.83-2.3-4.35-2.3-7.56Zm-13.38,9.94v-20.12h3.54v20.12h-3.54Zm-13.54-7.42l3.42,1.21c-.53,2.22-1.4,3.86-2.62,4.94-1.22,1.07-2.77,1.61-4.65,1.61-2.33,0-4.24-.91-5.73-2.74-1.49-1.83-2.24-4.32-2.24-7.49,0-3.35.75-5.95,2.26-7.81,1.5-1.85,3.48-2.78,5.93-2.78,2.14,0,3.88.73,5.22,2.19.8.86,1.39,2.1,1.79,3.71l-3.49.96c-.21-1.04-.64-1.86-1.3-2.47-.66-.6-1.46-.9-2.39-.9-1.3,0-2.35.53-3.16,1.61-.81,1.07-1.21,2.8-1.21,5.2,0,2.54.4,4.35,1.19,5.43.8,1.08,1.83,1.62,3.11,1.62.94,0,1.75-.34,2.43-1.03.68-.69,1.16-1.77,1.46-3.24Zm-24.85,0l3.42,1.21c-.53,2.22-1.4,3.86-2.62,4.94-1.22,1.07-2.77,1.61-4.65,1.61-2.33,0-4.23-.91-5.73-2.74-1.49-1.83-2.24-4.32-2.24-7.49,0-3.35.75-5.95,2.26-7.81,1.5-1.85,3.48-2.78,5.93-2.78,2.14,0,3.88.73,5.22,2.19.8.86,1.39,2.1,1.79,3.71l-3.49.96c-.21-1.04-.64-1.86-1.29-2.47-.66-.6-1.46-.9-2.39-.9-1.3,0-2.35.53-3.16,1.61-.81,1.07-1.21,2.8-1.21,5.2,0,2.54.4,4.35,1.19,5.43.8,1.08,1.83,1.62,3.11,1.62.94,0,1.75-.34,2.43-1.03.68-.69,1.16-1.77,1.46-3.24Zm-36.04-12.7h3.54v10.9c0,1.73.04,2.85.13,3.36.15.82.5,1.49,1.07,1.99.57.5,1.34.75,2.31.75s1.74-.23,2.24-.71c.5-.47.81-1.05.91-1.74.1-.69.15-1.83.15-3.42v-11.14h3.54v10.58c0,2.42-.09,4.13-.28,5.12-.19,1-.54,1.84-1.05,2.53-.51.69-1.19,1.23-2.05,1.64-.86.41-1.97.61-3.36.61-1.67,0-2.93-.22-3.79-.67-.86-.44-1.54-1.02-2.04-1.73-.5-.71-.83-1.45-.99-2.23-.23-1.15-.35-2.86-.35-5.11v-10.74Zm-21.31,8.51h2.61c1.69,0,2.75-.08,3.17-.25.42-.16.75-.45.99-.85.24-.4.36-.91.36-1.51,0-.68-.16-1.22-.47-1.64-.31-.42-.76-.68-1.33-.79-.29-.05-1.15-.07-2.58-.07h-2.76v5.11Zm-3.54,11.61v-20.12h7.44c1.87,0,3.23.18,4.08.54.85.36,1.53,1,2.04,1.93.51.93.77,1.98.77,3.17,0,1.51-.38,2.76-1.15,3.74-.77.98-1.92,1.6-3.45,1.86.76.51,1.39,1.07,1.88,1.69.5.61,1.16,1.7,2,3.27l2.13,3.93h-4.22l-2.53-4.39c-.91-1.56-1.53-2.54-1.87-2.95-.33-.4-.69-.68-1.06-.83-.38-.15-.97-.22-1.79-.22h-.72v8.4h-3.54Zm-18.2,0v-16.72h-5.18v-3.4h13.88v3.4h-5.16v16.72h-3.54Zm-28.36-6.52l3.45-.39c.21,1.33.62,2.29,1.25,2.92.63.62,1.48.93,2.55.93,1.13,0,1.99-.28,2.56-.83.57-.55.86-1.2.86-1.94,0-.48-.12-.88-.36-1.22-.24-.33-.66-.62-1.27-.87-.41-.17-1.35-.46-2.81-.88-1.89-.54-3.21-1.21-3.97-2-1.07-1.11-1.6-2.46-1.6-4.06,0-1.03.25-1.99.75-2.89.5-.89,1.23-1.57,2.18-2.04.95-.47,2.09-.7,3.43-.7,2.19,0,3.84.56,4.94,1.68,1.11,1.12,1.69,2.61,1.74,4.48l-3.54.14c-.15-1.04-.47-1.78-.96-2.24-.49-.45-1.23-.68-2.22-.68s-1.82.24-2.39.73c-.37.31-.56.73-.56,1.26,0,.48.18.89.53,1.22.44.44,1.52.88,3.24,1.35,1.71.46,2.98.95,3.8,1.45.82.5,1.47,1.18,1.93,2.05.46.87.7,1.93.7,3.2,0,1.15-.28,2.23-.83,3.24-.56,1.01-1.34,1.76-2.36,2.24-1.02.49-2.29.74-3.81.74-2.21,0-3.91-.59-5.09-1.76-1.19-1.17-1.89-2.88-2.12-5.12Zm-23.92,6.52v-20.12h3.43l7.2,13.48v-13.48h3.27v20.12h-3.54l-7.09-13.23v13.23h-3.27Zm-23.3-10.07c0,2.28.46,4.01,1.38,5.19.92,1.18,2.08,1.77,3.49,1.77s2.57-.59,3.48-1.75c.9-1.17,1.36-2.92,1.36-5.26s-.44-4.03-1.32-5.17c-.88-1.14-2.05-1.7-3.51-1.7s-2.63.58-3.53,1.72c-.89,1.15-1.34,2.89-1.34,5.2Zm-3.64.14c0-2.05.27-3.78.8-5.17.4-1.03.94-1.95,1.63-2.76.69-.81,1.44-1.42,2.26-1.82,1.09-.53,2.35-.8,3.77-.8,2.58,0,4.64.92,6.19,2.76,1.55,1.85,2.32,4.41,2.32,7.69s-.77,5.8-2.3,7.64c-1.54,1.84-3.59,2.76-6.16,2.76s-4.68-.91-6.21-2.74c-1.54-1.83-2.31-4.35-2.31-7.56Zm-12.93,2.52l3.42,1.21c-.53,2.22-1.4,3.86-2.62,4.94-1.22,1.07-2.77,1.61-4.65,1.61-2.33,0-4.24-.91-5.73-2.74-1.49-1.83-2.24-4.32-2.24-7.49,0-3.35.75-5.95,2.26-7.81,1.5-1.85,3.48-2.78,5.93-2.78,2.14,0,3.88.73,5.22,2.19.8.86,1.39,2.1,1.79,3.71l-3.49.96c-.21-1.04-.64-1.86-1.3-2.47-.66-.6-1.46-.9-2.39-.9-1.3,0-2.35.53-3.16,1.61-.81,1.07-1.21,2.8-1.21,5.2,0,2.54.4,4.35,1.19,5.43.8,1.08,1.83,1.62,3.11,1.62.94,0,1.75-.34,2.43-1.03.68-.69,1.16-1.77,1.46-3.24Z"/>
</svg>
